{"title":"Le.Cercle.Rouge.1970.720p.BluRay.x264-CiNEFiLE","uid":7202363,"size":7036414476,"categoryP":"video","categoryS":"hd___movies","magnet":"?xt=urn:btih:f362884682afdbe406a19bb7f086ea8f91113794&amp;dn=Le.Cercle.Rouge.1970.720p.BluRay.x264-CiNEFiLE&amp;tr=udp%3A%2F%2Ftracker.openbittorrent.com%3A80&amp;tr=udp%3A%2F%2Fopen.demonii.com%3A1337&amp;tr=udp%3A%2F%2Ftracker.coppersurfer.tk%3A6969&amp;tr=udp%3A%2F%2Fexodus.desync.com%3A6969","seeders":7,"leechers":0,"uploader":"mfccorrea","files":1,"time":1334975914,"description":"Corey is a cool, aristocratic thief, released from prison on the same day that Vogel, a murderer, escapes from the custody of the patient Mattei, a cat-loving police superintendent. Corey robs Rico, his mob boss, then enlists Vogel and an ex-police sharpshooter, Jansen, in a jewel heist. While Corey is harried by the vengeful Rico, Mattei pressures Santi, a nightclub owner and pimp, to help him trap the thieves. Over all hangs the judgment of the police directeur, that every man is guilty. \n\n   General\n      Complete name : Le.Cercle.Rouge.1970.720p.BluRay.x264-CiNEFiLE.mkv\n      Format : Matroska\n      File size : 6.55 GiB\n      Duration : 2h 20mn\n      Overall bit rate : 6 689 Kbps\n   Video #1\n      ID : 1\n      Format : AVC\n      Format/Info : Advanced Video Codec\n      Format profile : &lt;a class=&quot;__cf_email__&quot; href=&quot;/cdn-cgi/l/email-protection&quot; data-cfemail=&quot;672f0e000f272b534956&quot;&gt;[email&amp;#160;protected]&lt;/a&gt;&lt;script cf-hash='f9e31' type=&quot;text/javascript&quot;&gt;\n/* &lt;![CDATA[ */!function(){try{var t=&quot;currentScript&quot;in document?document.currentScript:function(){for(var t=document.getElementsByTagName(&quot;script&quot;),e=t.length;e--;)if(t[e].getAttribute(&quot;cf-hash&quot;))return t[e]}();if(t&amp;&amp;t.previousSibling){var e,r,n,i,c=t.previousSibling,a=c.getAttribute(&quot;data-cfemail&quot;);if(a){for(e=&quot;&quot;,r=parseInt(a.substr(0,2),16),n=2;a.length-n;n+=2)i=parseInt(a.substr(n,2),16)^r,e+=String.fromCharCode(i);e=document.createTextNode(e),c.parentNode.replaceChild(e,c)}}}catch(u){}}();/* ]]&gt; */&lt;/script&gt;\n      Format settings, CABAC : Yes\n      Format settings, ReFrames : 5 frames\n      Muxing mode : Container profile=&lt;a class=&quot;__cf_email__&quot; href=&quot;/cdn-cgi/l/email-protection&quot; data-cfemail=&quot;eabf848184859d84aadec4db&quot;&gt;[email&amp;#160;protected]&lt;/a&gt;&lt;script cf-hash='f9e31' type=&quot;text/javascript&quot;&gt;\n/* &lt;![CDATA[ */!function(){try{var t=&quot;currentScript&quot;in document?document.currentScript:function(){for(var t=document.getElementsByTagName(&quot;script&quot;),e=t.length;e--;)if(t[e].getAttribute(&quot;cf-hash&quot;))return t[e]}();if(t&amp;&amp;t.previousSibling){var e,r,n,i,c=t.previousSibling,a=c.getAttribute(&quot;data-cfemail&quot;);if(a){for(e=&quot;&quot;,r=parseInt(a.substr(0,2),16),n=2;a.length-n;n+=2)i=parseInt(a.substr(n,2),16)^r,e+=String.fromCharCode(i);e=document.createTextNode(e),c.parentNode.replaceChild(e,c)}}}catch(u){}}();/* ]]&gt; */&lt;/script&gt;\n      Codec ID : V_MPEG4/ISO/AVC\n      Duration : 2h 20mn\n      Bit rate : 5 046 Kbps\n      Nominal bit rate : 5 184 Kbps\n      Width : 1 280 pixels\n      Height : 688 pixels\n      Display aspect ratio : 1.860\n      Frame rate : 23.976 fps\n      Resolution : 24 bits\n      Colorimetry : 4:2:0\n      Scan type : Progressive\n      Bits/(Pixel*Frame) : 0.239\n      Stream size : 4.94 GiB (75%)\n   Audio #2\n      ID : 2\n      Format : DTS\n      Format/Info : Digital Theater Systems\n      Codec ID : A_DTS\n      Duration : 2h 20mn\n      Bit rate mode : Constant\n      Bit rate : 1 510 Kbps\n      Channel(s) : 2 channels\n      Channel positions : L R\n      Sampling rate : 48.0 KHz\n      Resolution : 24 bits\n      Stream size : 1.48 GiB (23%)\n      Title : DTS 2.0\n      Language : French\n   Text #3\n      ID : 3\n      Format : UTF-8\n      Codec ID : S_TEXT/UTF8\n      Codec ID/Info : UTF-8 Plain Text\n      Language: English\n &lt;a href=&quot;\nhttp://www.imdb.com/title/tt0065531/&quot; rel=&quot;nofollow&quot; target=&quot;_NEW&quot;&gt;\nhttp://www.imdb.com/title/tt0065531/&lt;/a&gt;\n\nFrench audio, English subtitles (in mkv)","torrent":{"xt":"urn:btih:f362884682afdbe406a19bb7f086ea8f91113794","amp;dn":"Le.Cercle.Rouge.1970.720p.BluRay.x264-CiNEFiLE","amp;tr":["udp%3A%2F%2Ftracker.openbittorrent.com%3A80","udp%3A%2F%2Fopen.demonii.com%3A1337","udp%3A%2F%2Ftracker.coppersurfer.tk%3A6969","udp%3A%2F%2Fexodus.desync.com%3A6969"],"infoHash":"f362884682afdbe406a19bb7f086ea8f91113794","infoHashBuffer":{"type":"Buffer","data":[243,98,136,70,130,175,219,228,6,161,155,183,240,134,234,143,145,17,55,148]},"announce":[],"urlList":[]}}